<svg id="Capa_1" enable-background="new 0 0 518.452 518.452" height="512" viewBox="0 0 518.452 518.452" width="512" xmlns="http://www.w3.org/2000/svg"><g><path d="m259.226 124.199c-74.574 0-135.027 60.454-135.027 135.027 0 74.574 60.454 135.027 135.027 135.027s135.027-60.453 135.027-135.027-60.453-135.027-135.027-135.027zm0 225.054c-49.641 0-90.027-40.386-90.027-90.027s40.386-90.027 90.027-90.027 90.027 40.386 90.027 90.027-40.386 90.027-90.027 90.027z"/><circle cx="259.226" cy="259.226" r="60.027"/><path d="m473.416 259.226c0-23.171 11.98-43.921 32.046-55.507l12.99-7.5-75.048-129.986-12.99 7.5c-20.067 11.585-44.026 11.586-64.093 0-20.066-11.586-32.047-32.336-32.047-55.507v-15h-150.096v15c0 23.171-11.98 43.921-32.047 55.507s-44.026 11.587-64.093 0l-12.99-7.5-75.048 129.986 12.99 7.5c20.066 11.586 32.047 32.336 32.047 55.507s-11.98 43.921-32.047 55.507l-12.99 7.5 75.048 129.986 12.99-7.5c20.067-11.584 44.027-11.585 64.093 0 20.067 11.585 32.047 32.336 32.047 55.507v15h150.096v-15c0-23.171 11.98-43.922 32.047-55.507 20.066-11.585 44.027-11.585 64.093 0l12.99 7.5 75.048-129.986-12.99-7.5c-20.066-11.586-32.046-32.336-32.046-55.507zm-49.163 0c0 22.265-4.367 43.881-12.981 64.245-8.313 19.655-20.208 37.3-35.354 52.447-15.146 15.146-32.792 27.041-52.447 35.354-20.365 8.614-41.98 12.981-64.245 12.981s-43.881-4.367-64.245-12.981c-19.655-8.313-37.3-20.208-52.447-35.354-15.146-15.146-27.041-32.792-35.354-52.447-8.614-20.365-12.981-41.98-12.981-64.245s4.367-43.88 12.981-64.245c8.313-19.655 20.208-37.301 35.354-52.447s32.792-27.041 52.447-35.354c20.365-8.614 41.98-12.981 64.245-12.981s43.881 4.367 64.245 12.981c19.655 8.313 37.3 20.208 52.447 35.354 15.146 15.146 27.041 32.792 35.354 52.447 8.614 20.364 12.981 41.98 12.981 64.245z"/></g></svg>